<svg width="640" height="640" xmlns="http://www.w3.org/2000/svg" clip-rule="evenodd">

 <g>
  <title>background</title>
  <rect fill="none" id="canvas_background" height="402" width="582" y="-1" x="-1"/>
 </g>
 <g>
  <title>Layer 1</title>
  <path stroke="null" fill="#ffffff" id="svg_1" d="m523.199808,128.921151c-53.407964,-50.648444 -124.446998,-78.503156 -200.109019,-78.503156c-155.862717,-0.00084 -282.721052,120.057624 -282.721052,267.662572c0,47.148758 13.050685,93.266171 37.778204,133.786774l-40.146941,138.727655l149.95108,-37.23928c41.353054,21.317262 87.874019,32.615864 135.096996,32.615864l0.115375,0c155.873367,0 282.835539,-120.057624 282.835539,-267.653334c0,-71.540738 -29.434819,-138.726815 -82.842782,-189.356782l0.041712,-0.039473l0.000887,-0.00084zm-200.025595,411.887094c-42.244103,0 -83.618457,-10.772852 -119.719287,-31.038612l-8.606086,-4.861095l-88.985168,22.052137l23.763695,-82.07591l-5.566399,-8.432169c-23.65897,-35.35464 -36.005867,-76.273335 -36.005867,-118.361952c0,-122.688057 105.463377,-222.528632 235.246024,-222.528632c62.757774,0 121.878574,23.222059 166.230489,65.191416c44.37144,42.099535 68.775023,97.917301 68.775023,157.406085c-0.104725,122.776242 -105.568102,222.617657 -235.151949,222.617657l0.0213,0.030235l-0.001775,0.00084zm128.880947,-166.682311c-7.022786,-3.382946 -41.814554,-19.512408 -48.271115,-21.74391c-6.457449,-2.232341 -11.164748,-3.382946 -15.954584,3.382106c-4.675349,6.646632 -18.270959,21.74391 -22.411145,26.258143c-4.141074,4.434447 -8.239548,5.06854 -15.262334,1.686434c-7.023673,-3.382946 -29.885669,-10.436069 -56.856788,-33.23148c-20.97517,-17.716793 -35.200017,-39.658909 -39.341092,-46.304701c-4.140187,-6.646632 -0.4615,-10.336966 3.134649,-13.599812c3.249137,-2.976455 7.033436,-7.797237 10.597635,-11.716012c3.574849,-3.917935 4.685999,-6.65587 7.033436,-11.178503c2.358974,-4.434447 1.206112,-8.353222 -0.565337,-11.716012c-1.7821,-3.372028 -15.954584,-36.29612 -21.730433,-49.706964c-5.671124,-13.104296 -11.59341,-11.279286 -15.943934,-11.506887c-4.140187,-0.199046 -8.826186,-0.199046 -13.489997,-0.199046c-4.665586,0 -12.380622,1.676355 -18.837183,8.342304c-6.457449,6.646632 -24.75947,22.894514 -24.75947,55.808528c0,32.923252 25.304395,64.676583 28.857944,69.210134c3.573962,4.423529 49.843764,72.046332 120.725712,100.982781c16.844746,6.854077 30.000156,10.971058 40.252554,14.154958c16.949471,5.059301 32.327181,4.325266 44.486815,2.628754c13.596497,-1.894718 41.814554,-16.149619 47.73684,-31.772648c5.912524,-15.633947 5.912524,-29.005317 4.141074,-31.772648c-1.677375,-2.976455 -6.352724,-4.622575 -13.490885,-8.045834l-0.05325,0.040313l0.000887,0z"/>
 </g>
</svg>